<svg width="1000" height="1000" viewBox="0 0 1000 1000" fill="none" xmlns="http://www.w3.org/2000/svg">
<path fill-rule="evenodd" clip-rule="evenodd" d="M927.017 250L499.508 0L72 250V750L499.508 1000L927.017 750V250ZM437.79 247.881H279.169V361.695H432.019C475.301 361.695 509.927 373.941 535.896 398.432C562.346 422.924 575.571 456.78 575.571 500C575.571 543.22 562.346 577.076 535.896 601.568C509.927 626.059 475.301 638.305 432.019 638.305H348.791L279.169 571.313V752.118H437.79C493.095 752.118 542.148 741.794 584.949 721.144C627.752 700.494 660.935 671.2 684.5 633.263C708.065 595.325 719.847 550.904 719.847 500C719.847 449.096 708.065 404.675 684.5 366.737C660.935 328.799 627.752 299.506 584.949 278.856C542.148 258.206 493.095 247.881 437.79 247.881ZM279.179 402.231V546.595L348.791 614.343H432.019V546.595H348.791V402.231H279.179Z" fill="#222222"/>
</svg>
