<svg width="123" height="169" viewBox="0 0 123 169" fill="none" xmlns="http://www.w3.org/2000/svg">
<path fill-rule="evenodd" clip-rule="evenodd" d="M123 36.0911L61.5 0L0 36.0911V108.273L61.5 144.364L123 108.273V36.0911ZM52.6214 35.7852H29.8027V52.2159H51.7912C58.0176 52.2159 62.9988 53.9837 66.7346 57.5194C70.5397 61.0551 72.4422 65.9427 72.4422 72.1822C72.4422 78.4217 70.5397 83.3093 66.7346 86.845C62.9988 90.3807 58.0176 92.1485 51.7912 92.1485H39.8183L29.8027 82.4773V108.579H52.6214C60.5774 108.579 67.634 107.089 73.7912 104.108C79.9488 101.126 84.7224 96.8975 88.1123 91.4206C91.5023 85.9437 93.1973 79.5309 93.1973 72.1822C93.1973 64.8335 91.5023 58.4207 88.1123 52.9438C84.7224 47.4669 79.9488 43.238 73.7912 40.2569C67.634 37.2758 60.5774 35.7852 52.6214 35.7852ZM29.8042 58.0679V78.9089L39.8183 88.6893H51.7912V78.9089H39.8183V58.0679H29.8042Z" fill="white"/>
<path d="M31.5635 162.037C31.5635 162.07 31.5386 162.461 31.4889 163.21H21.6906C21.8895 163.909 22.2708 164.449 22.8345 164.832C23.4148 165.198 24.136 165.381 24.9981 165.381C25.6447 165.381 26.2001 165.29 26.6643 165.107C27.1451 164.924 27.6259 164.624 28.1067 164.208L30.5936 166.804C29.2838 168.268 27.3689 169 24.8489 169C23.2739 169 21.8895 168.7 20.6958 168.101C19.5021 167.503 18.5736 166.671 17.9105 165.606C17.2639 164.541 16.9406 163.335 16.9406 161.987C16.9406 160.656 17.2556 159.466 17.8856 158.418C18.5322 157.353 19.4192 156.522 20.5466 155.923C21.674 155.324 22.9423 155.024 24.3515 155.024C25.6944 155.024 26.913 155.307 28.0072 155.873C29.1015 156.422 29.9636 157.229 30.5936 158.294C31.2402 159.342 31.5635 160.59 31.5635 162.037ZM24.3764 158.393C23.6469 158.393 23.0335 158.601 22.5361 159.017C22.0553 159.433 21.7486 159.999 21.616 160.714H27.1368C27.0042 159.999 26.6892 159.433 26.1918 159.017C25.711 158.601 25.1059 158.393 24.3764 158.393ZM40.6307 169C39.1385 169 37.8039 168.7 36.6268 168.101C35.4497 167.503 34.5295 166.671 33.8663 165.606C33.2197 164.541 32.8965 163.335 32.8965 161.987C32.8965 160.639 33.2197 159.442 33.8663 158.393C34.5295 157.329 35.4497 156.505 36.6268 155.923C37.8039 155.324 39.1385 155.024 40.6307 155.024C42.1559 155.024 43.474 155.357 44.5848 156.022C45.6956 156.671 46.4831 157.578 46.9473 158.743L43.2916 160.614C42.6782 159.4 41.7829 158.793 40.6058 158.793C39.7603 158.793 39.0556 159.075 38.4919 159.641C37.9448 160.207 37.6713 160.989 37.6713 161.987C37.6713 163.002 37.9448 163.801 38.4919 164.383C39.0556 164.949 39.7603 165.231 40.6058 165.231C41.7829 165.231 42.6782 164.624 43.2916 163.41L46.9473 165.281C46.4831 166.446 45.6956 167.361 44.5848 168.027C43.474 168.675 42.1559 169 40.6307 169ZM55.3449 169C53.9026 169 52.6011 168.7 51.4405 168.101C50.28 167.503 49.3681 166.671 48.705 165.606C48.0584 164.541 47.7351 163.335 47.7351 161.987C47.7351 160.656 48.0584 159.458 48.705 158.393C49.3681 157.329 50.2717 156.505 51.4157 155.923C52.5762 155.324 53.886 155.024 55.3449 155.024C56.8039 155.024 58.1137 155.324 59.2742 155.923C60.4348 156.505 61.3383 157.329 61.9849 158.393C62.6315 159.442 62.9548 160.639 62.9548 161.987C62.9548 163.335 62.6315 164.541 61.9849 165.606C61.3383 166.671 60.4348 167.503 59.2742 168.101C58.1137 168.7 56.8039 169 55.3449 169ZM55.3449 165.231C56.1739 165.231 56.8537 164.949 57.3842 164.383C57.9147 163.801 58.18 163.002 58.18 161.987C58.18 160.989 57.9147 160.207 57.3842 159.641C56.8537 159.075 56.1739 158.793 55.3449 158.793C54.516 158.793 53.8362 159.075 53.3057 159.641C52.7752 160.207 52.5099 160.989 52.5099 161.987C52.5099 163.002 52.7752 163.801 53.3057 164.383C53.8362 164.949 54.516 165.231 55.3449 165.231ZM69.645 156.871C70.1258 156.255 70.7475 155.798 71.5102 155.498C72.2894 155.182 73.1764 155.024 74.1711 155.024V159.292C73.7401 159.242 73.3836 159.217 73.1018 159.217C72.0904 159.217 71.2946 159.491 70.7144 160.04C70.1507 160.59 69.8688 161.43 69.8688 162.561V168.775H65.1437V155.249H69.645V156.871ZM76.1211 150.258H80.8462V168.775H76.1211V150.258ZM83.9169 155.249H88.6419V168.775H83.9169V155.249ZM86.2794 153.751C85.4173 153.751 84.7209 153.51 84.1904 153.028C83.6599 152.545 83.3946 151.946 83.3946 151.231C83.3946 150.515 83.6599 149.916 84.1904 149.434C84.7209 148.951 85.4173 148.71 86.2794 148.71C87.1415 148.71 87.8378 148.943 88.3684 149.409C88.8989 149.858 89.1642 150.441 89.1642 151.156C89.1642 151.905 88.8989 152.529 88.3684 153.028C87.8378 153.51 87.1415 153.751 86.2794 153.751ZM100.491 155.024C102.166 155.024 103.509 155.523 104.52 156.522C105.548 157.52 106.062 159.026 106.062 161.039V168.775H101.337V161.812C101.337 159.966 100.599 159.042 99.1236 159.042C98.3112 159.042 97.6563 159.308 97.1589 159.841C96.6781 160.373 96.4377 161.172 96.4377 162.237V168.775H91.7127V155.249H96.2139V156.721C96.7444 156.172 97.3745 155.756 98.1039 155.473C98.8334 155.174 99.6292 155.024 100.491 155.024ZM123 162.037C123 162.07 122.975 162.461 122.925 163.21H113.127C113.326 163.909 113.707 164.449 114.271 164.832C114.851 165.198 115.573 165.381 116.435 165.381C117.081 165.381 117.637 165.29 118.101 165.107C118.582 164.924 119.062 164.624 119.543 164.208L122.03 166.804C120.72 168.268 118.805 169 116.285 169C114.71 169 113.326 168.7 112.132 168.101C110.939 167.503 110.01 166.671 109.347 165.606C108.7 164.541 108.377 163.335 108.377 161.987C108.377 160.656 108.692 159.466 109.322 158.418C109.969 157.353 110.856 156.522 111.983 155.923C113.11 155.324 114.379 155.024 115.788 155.024C117.131 155.024 118.35 155.307 119.444 155.873C120.538 156.422 121.4 157.229 122.03 158.294C122.677 159.342 123 160.59 123 162.037ZM115.813 158.393C115.083 158.393 114.47 158.601 113.973 159.017C113.492 159.433 113.185 159.999 113.052 160.714H118.573C118.441 159.999 118.126 159.433 117.628 159.017C117.148 158.601 116.542 158.393 115.813 158.393Z" fill="white"/>
<path d="M5.55794 151.258H0V155.262H5.35573C6.8723 155.262 8.08555 155.693 8.99549 156.555C9.92229 157.417 10.3857 158.608 10.3857 160.129C10.3857 161.649 9.92229 162.841 8.99549 163.703C8.08555 164.564 6.8723 164.995 5.35573 164.995H2.19621L0 161.987V169H5.55794C7.49578 169 9.21455 168.637 10.7143 167.91C12.2141 167.183 13.3768 166.153 14.2024 164.818C15.0281 163.483 15.441 161.92 15.441 160.129C15.441 158.338 15.0281 156.775 14.2024 155.44C13.3768 154.105 12.2141 153.074 10.7143 152.347C9.21455 151.621 7.49578 151.258 5.55794 151.258Z" fill="white"/>
</svg>
