<svg width="149" height="47" viewBox="0 0 149 47" fill="none" xmlns="http://www.w3.org/2000/svg">
<path fill-rule="evenodd" clip-rule="evenodd" d="M40.1858 11.75L20.0929 0L0 11.75V35.25L20.0929 47L40.1858 35.25V11.75ZM17.1921 11.6504H9.73696V16.9997H16.9209C18.9552 16.9997 20.5826 17.5752 21.8031 18.7263C23.0463 19.8774 23.6679 21.4686 23.6679 23.5C23.6679 25.5313 23.0463 27.1226 21.8031 28.2737C20.5826 29.4248 18.9552 30.0003 16.9209 30.0003H13.0092L9.73696 26.8517V35.3496H17.1921C19.7915 35.3496 22.097 34.8643 24.1086 33.8938C26.1204 32.9232 27.68 31.5464 28.7875 29.7633C29.8951 27.9803 30.4488 25.8925 30.4488 23.5C30.4488 21.1075 29.8951 19.0197 28.7875 17.2367C27.68 15.4536 26.1204 14.0768 24.1086 13.1062C22.097 12.1357 19.7915 11.6504 17.1921 11.6504ZM9.73743 18.9049V25.69L13.0092 28.8741H16.9209V25.69H13.0092V18.9049H9.73743Z" fill="white"/>
<path d="M73.5752 26.1138C73.5752 26.1411 73.5547 26.4623 73.5137 27.0772H65.4368C65.6008 27.6512 65.9151 28.0954 66.3798 28.4097C66.8581 28.7104 67.4526 28.8607 68.1633 28.8607C68.6963 28.8607 69.1541 28.7855 69.5367 28.6352C69.9331 28.4849 70.3294 28.2389 70.7257 27.8972L72.7757 30.0292C71.696 31.2318 70.1176 31.8332 68.0403 31.8332C66.7419 31.8332 65.6008 31.5872 64.6168 31.0952C63.6328 30.6032 62.8675 29.9199 62.3208 29.0452C61.7878 28.1706 61.5213 27.1797 61.5213 26.0728C61.5213 24.9794 61.781 24.0023 62.3003 23.1413C62.8333 22.2667 63.5645 21.5833 64.4938 21.0913C65.4231 20.5993 66.4686 20.3533 67.6303 20.3533C68.7372 20.3533 69.7417 20.5857 70.6437 21.0503C71.5457 21.5013 72.2564 22.1642 72.7757 23.0388C73.3087 23.8998 73.5752 24.9248 73.5752 26.1138ZM67.6508 23.1208C67.0494 23.1208 66.5438 23.2916 66.1338 23.6333C65.7375 23.975 65.4846 24.4396 65.3753 25.0273H69.9262C69.8169 24.4396 69.5572 23.975 69.1472 23.6333C68.7509 23.2916 68.2521 23.1208 67.6508 23.1208ZM81.0494 31.8332C79.8194 31.8332 78.7192 31.5872 77.7489 31.0952C76.7786 30.6032 76.0201 29.9199 75.4734 29.0452C74.9405 28.1706 74.674 27.1797 74.674 26.0728C74.674 24.9658 74.9405 23.9818 75.4734 23.1208C76.0201 22.2462 76.7786 21.5697 77.7489 21.0913C78.7192 20.5993 79.8194 20.3533 81.0494 20.3533C82.3067 20.3533 83.3932 20.6267 84.3088 21.1733C85.2245 21.7063 85.8736 22.4512 86.2563 23.4078L83.2428 24.9453C82.7372 23.9476 81.9992 23.4488 81.0289 23.4488C80.3319 23.4488 79.751 23.6811 79.2864 24.1458C78.8354 24.6105 78.6099 25.2528 78.6099 26.0728C78.6099 26.9064 78.8354 27.5624 79.2864 28.0407C79.751 28.5054 80.3319 28.7377 81.0289 28.7377C81.9992 28.7377 82.7372 28.2389 83.2428 27.2412L86.2563 28.7787C85.8736 29.7354 85.2245 30.487 84.3088 31.0337C83.3932 31.5667 82.3067 31.8332 81.0494 31.8332ZM93.1785 31.8332C91.9895 31.8332 90.9167 31.5872 89.9601 31.0952C89.0034 30.6032 88.2518 29.9199 87.7051 29.0452C87.1721 28.1706 86.9056 27.1797 86.9056 26.0728C86.9056 24.9794 87.1721 23.9955 87.7051 23.1208C88.2518 22.2462 88.9966 21.5697 89.9396 21.0913C90.8962 20.5993 91.9759 20.3533 93.1785 20.3533C94.3812 20.3533 95.4608 20.5993 96.4175 21.0913C97.3741 21.5697 98.1189 22.2462 98.6519 23.1208C99.1849 23.9818 99.4514 24.9658 99.4514 26.0728C99.4514 27.1797 99.1849 28.1706 98.6519 29.0452C98.1189 29.9199 97.3741 30.6032 96.4175 31.0952C95.4608 31.5872 94.3812 31.8332 93.1785 31.8332ZM93.1785 28.7377C93.8618 28.7377 94.4222 28.5054 94.8595 28.0407C95.2968 27.5624 95.5155 26.9064 95.5155 26.0728C95.5155 25.2528 95.2968 24.6105 94.8595 24.1458C94.4222 23.6811 93.8618 23.4488 93.1785 23.4488C92.4952 23.4488 91.9349 23.6811 91.4975 24.1458C91.0602 24.6105 90.8416 25.2528 90.8416 26.0728C90.8416 26.9064 91.0602 27.5624 91.4975 28.0407C91.9349 28.5054 92.4952 28.7377 93.1785 28.7377ZM104.966 21.8703C105.363 21.3647 105.875 20.9888 106.504 20.7428C107.146 20.4832 107.877 20.3533 108.697 20.3533V23.8588C108.342 23.8178 108.048 23.7973 107.816 23.7973C106.982 23.7973 106.326 24.0228 105.848 24.4738C105.383 24.9248 105.151 25.6149 105.151 26.5443V31.6487H101.256V20.5378H104.966V21.8703ZM110.305 16.4379H114.199V31.6487H110.305V16.4379ZM116.731 20.5378H120.626V31.6487H116.731V20.5378ZM118.678 19.3079C117.967 19.3079 117.394 19.1097 116.956 18.7134C116.519 18.317 116.3 17.8251 116.3 17.2374C116.3 16.6497 116.519 16.1577 116.956 15.7614C117.394 15.3651 117.967 15.1669 118.678 15.1669C119.389 15.1669 119.963 15.3583 120.4 15.7409C120.837 16.1099 121.056 16.5882 121.056 17.1759C121.056 17.7909 120.837 18.3034 120.4 18.7134C119.963 19.1097 119.389 19.3079 118.678 19.3079ZM130.393 20.3533C131.774 20.3533 132.881 20.7634 133.714 21.5833C134.562 22.4033 134.985 23.6401 134.985 25.2938V31.6487H131.09V25.9293C131.09 24.4123 130.482 23.6538 129.266 23.6538C128.596 23.6538 128.056 23.8725 127.646 24.3098C127.25 24.7471 127.052 25.4031 127.052 26.2778V31.6487H123.157V20.5378H126.867V21.7473C127.305 21.2963 127.824 20.9547 128.425 20.7224C129.027 20.4764 129.683 20.3533 130.393 20.3533ZM148.947 26.1138C148.947 26.1411 148.927 26.4623 148.886 27.0772H140.809C140.973 27.6512 141.287 28.0954 141.752 28.4097C142.23 28.7104 142.825 28.8607 143.535 28.8607C144.068 28.8607 144.526 28.7855 144.909 28.6352C145.305 28.4849 145.702 28.2389 146.098 27.8972L148.148 30.0292C147.068 31.2318 145.49 31.8332 143.412 31.8332C142.114 31.8332 140.973 31.5872 139.989 31.0952C139.005 30.6032 138.24 29.9199 137.693 29.0452C137.16 28.1706 136.894 27.1797 136.894 26.0728C136.894 24.9794 137.153 24.0023 137.673 23.1413C138.206 22.2667 138.937 21.5833 139.866 21.0913C140.795 20.5993 141.841 20.3533 143.002 20.3533C144.109 20.3533 145.114 20.5857 146.016 21.0503C146.918 21.5013 147.629 22.1642 148.148 23.0388C148.681 23.8998 148.947 24.9248 148.947 26.1138ZM143.023 23.1208C142.422 23.1208 141.916 23.2916 141.506 23.6333C141.11 23.975 140.857 24.4396 140.748 25.0273H145.298C145.189 24.4396 144.929 23.975 144.519 23.6333C144.123 23.2916 143.624 23.1208 143.023 23.1208Z" fill="white"/>
<path d="M52.1385 17.2593H47.557V20.5489H51.9718C53.2219 20.5489 54.222 20.9028 54.9721 21.6107C55.7361 22.3185 56.1181 23.2971 56.1181 24.5462C56.1181 25.7954 55.7361 26.774 54.9721 27.4818C54.222 28.1897 53.2219 28.5437 51.9718 28.5437H49.3674L47.557 26.0728V31.8332H52.1385C53.7359 31.8332 55.1527 31.5348 56.3889 30.9379C57.6252 30.3411 58.5836 29.4944 59.2643 28.3979C59.9449 27.3014 60.2852 26.0175 60.2852 24.5462C60.2852 23.075 59.9449 21.7911 59.2643 20.6946C58.5836 19.5981 57.6252 18.7514 56.3889 18.1546C55.1527 17.5577 53.7359 17.2593 52.1385 17.2593Z" fill="white"/>
</svg>
