<svg width="36" height="30" viewBox="0 0 36 30" fill="none" xmlns="http://www.w3.org/2000/svg">
<path d="M12.4667 30.0011C13.6811 30.0011 14.6667 28.9946 14.6667 27.7511C14.6667 26.5091 13.6811 25.5011 12.4667 25.5011C11.2523 25.5011 10.2667 26.5091 10.2667 27.7511C10.2667 28.9946 11.2523 30.0011 12.4667 30.0011Z" fill="#131313"/>
<path d="M17.6 27.7511C17.6 26.5076 18.5856 25.5011 19.8 25.5011C21.0144 25.5011 22 26.5091 22 27.7511C22 28.9946 21.0144 30.0011 19.8 30.0011C18.5856 30.0011 17.6 28.9946 17.6 27.7511Z" fill="#131313"/>
<path d="M24.0137 21.0011L29.0473 3.0011H35.2L34.1103 6.0011H31.2811L26.1859 24.0011H6.76867L0 7.5011H3.17973L8.71933 21.0011H24.0137Z" fill="#131313"/>
<path d="M19.0667 10.5011C19.0667 10.5011 18.9444 2.42452 9.1001 -0.000976562C14.1001 4 13.2 10.5011 13.2 10.5011H10.2667L16.1333 16.5011L22 10.5011H19.0667Z" fill="#131313"/>
</svg>
