<svg width="38" height="29" viewBox="0 0 38 29" fill="none" xmlns="http://www.w3.org/2000/svg">
<path d="M38 0.5L36.8236 3.66667H33.7693L28.2688 22.6667H7.30708L0 5.25H26.619L25.726 8.41667H4.76267L9.41292 19.5H25.9239L31.3579 0.5H38ZM13.4583 24.25C12.1473 24.25 11.0833 25.314 11.0833 26.625C11.0833 27.9376 12.1473 29 13.4583 29C14.7693 29 15.8333 27.9376 15.8333 26.625C15.8333 25.314 14.7693 24.25 13.4583 24.25ZM21.375 24.25C20.064 24.25 19 25.3124 19 26.625C19 27.9376 20.064 29 21.375 29C22.686 29 23.75 27.9376 23.75 26.625C23.75 25.314 22.686 24.25 21.375 24.25Z" fill="white"/>
</svg>
