<svg width="33" height="25" viewBox="0 0 33 25" fill="none" xmlns="http://www.w3.org/2000/svg">
<path fill-rule="evenodd" clip-rule="evenodd" d="M6.875 11.125V12.5H17.875V2.875H4.125V1.5C4.125 0.741 4.741 0.125 5.5 0.125H19.25C20.009 0.125 20.625 0.741 20.625 1.5V4.25H27.0421C28.578 4.25 29.2421 5.042 29.7041 5.77212C30.5209 7.06462 31.8161 9.11612 32.604 10.4169C32.8625 10.8459 33 11.3381 33 11.84V18C33 19.4974 31.9784 20.75 30.25 20.75H28.875C28.875 23.027 27.027 24.875 24.75 24.875C22.473 24.875 20.625 23.027 20.625 20.75H15.125C15.125 23.027 13.277 24.875 11 24.875C8.723 24.875 6.875 23.027 6.875 20.75H5.5C4.741 20.75 4.125 20.134 4.125 19.375V11.125H1.375V8.375H11V11.125H6.875ZM11 19.1C11.9102 19.1 12.65 19.8398 12.65 20.75C12.65 21.6602 11.9102 22.4 11 22.4C10.0898 22.4 9.35 21.6602 9.35 20.75C9.35 19.8398 10.0898 19.1 11 19.1ZM24.75 19.1C25.6602 19.1 26.4 19.8398 26.4 20.75C26.4 21.6602 25.6602 22.4 24.75 22.4C23.8398 22.4 23.1 21.6602 23.1 20.75C23.1 19.8398 23.8398 19.1 24.75 19.1ZM20.625 15.25H6.875V18H7.92687C8.68175 17.1558 9.779 16.625 11 16.625C12.221 16.625 13.3182 17.1558 14.0731 18H21.6769C22.4318 17.1558 23.529 16.625 24.75 16.625C25.971 16.625 27.0683 17.1558 27.8231 18H30.25V11.7094L27.8974 7.682C27.6512 7.25988 27.1989 7 26.7108 7H20.625V15.25ZM22 8.375V12.5H28.875L26.9129 9.068C26.6681 8.639 26.213 8.375 25.7194 8.375H22ZM0 4.25H11V7H0V4.25Z" fill="#131313"/>
</svg>
