<svg width="35" height="27" viewBox="0 0 35 27" fill="none" xmlns="http://www.w3.org/2000/svg">
<path fill-rule="evenodd" clip-rule="evenodd" d="M19.6875 22.5C18.48 22.5 17.5 23.508 17.5 24.75C17.5 25.9935 18.48 27 19.6875 27C20.895 27 21.875 25.9935 21.875 24.75C21.875 23.508 20.895 22.5 19.6875 22.5ZM14.5833 24.75C14.5833 25.9935 13.6033 27 12.3958 27C11.1883 27 10.2083 25.9935 10.2083 24.75C10.2083 23.508 11.1883 22.5 12.3958 22.5C13.6033 22.5 14.5833 23.508 14.5833 24.75ZM33.9165 3H31.1033L26.0385 21H6.73167L0 4.5H3.16313L8.66979 18H23.8773L28.8823 0H35L33.9165 3ZM16.0417 5.2125L19.651 1.5L21.7131 3.621L18.1038 7.3335L21.7131 11.046L19.651 13.167L16.0417 9.4545L12.4323 13.167L10.3702 11.046L13.9796 7.3335L10.3702 3.621L12.4323 1.5L16.0417 5.2125Z" fill="#131313"/>
</svg>
