<svg width="34" height="34" viewBox="0 0 34 34" fill="none" xmlns="http://www.w3.org/2000/svg">
<path d="M34 30.6652L25.1391 21.8747C26.8056 19.601 27.7909 16.8045 27.7909 13.7842C27.7909 6.18375 21.5576 0 13.8947 0C6.23336 0 0 6.18375 0 13.7842C0 21.386 6.23336 27.5683 13.8947 27.5683C16.7994 27.5683 19.4969 26.6801 21.7304 25.1628L30.6384 34L34 30.6652V30.6652ZM4.0756 13.7842C4.0756 8.41217 8.48108 4.04175 13.8962 4.04175C19.3113 4.04175 23.7167 8.41217 23.7167 13.7842C23.7167 19.1562 19.3113 23.5266 13.8962 23.5266C8.47965 23.5266 4.0756 19.1562 4.0756 13.7842V13.7842Z" fill="white"/>
</svg>
