<svg width="25" height="25" viewBox="0 0 25 25" fill="none" xmlns="http://www.w3.org/2000/svg">
<path d="M12.242 4.18294C12.4377 3.86828 12.8956 3.86828 13.0913 4.18294L15.5746 8.17708C15.6435 8.28779 15.7528 8.36723 15.8794 8.39849L20.4454 9.52605C20.8052 9.61488 20.9467 10.0504 20.7079 10.3337L17.6766 13.9298C17.5926 14.0295 17.5508 14.158 17.5602 14.288L17.8988 18.9791C17.9255 19.3486 17.555 19.6178 17.2118 19.4782L12.855 17.7066C12.7342 17.6575 12.5991 17.6575 12.4783 17.7066L8.12153 19.4782C7.77831 19.6178 7.40781 19.3486 7.43449 18.9791L7.7731 14.288C7.78248 14.158 7.74072 14.0295 7.6567 13.9298L4.62545 10.3337C4.38665 10.0504 4.52816 9.61488 4.88787 9.52605L9.45393 8.39849C9.58049 8.36723 9.68984 8.28779 9.75867 8.17708L12.242 4.18294Z" fill="url(#paint0_linear)"/>
<defs>
<linearGradient id="paint0_linear" x1="12.6667" y1="3.5" x2="12.6667" y2="21.5" gradientUnits="userSpaceOnUse">
<stop stop-color="#D37F00"/>
<stop offset="1" stop-color="#DD8500"/>
</linearGradient>
</defs>
</svg>
